<svg width="24" height="25" viewBox="0 0 24 25" fill="none" xmlns="http://www.w3.org/2000/svg">
<path d="M0.192383 5.18604C4.2923 3.14076 8.3771 3.87996 12.5106 4.51476C16.2357 5.08692 20.0025 5.58444 23.8084 3.68604V19.814C19.7085 21.8593 15.6237 21.1201 11.4901 20.4853C7.7651 19.9132 3.9983 19.4156 0.192383 21.314V5.18604Z" fill="#008751"/>
<path d="M8.06445 3.92212C10.662 4.1362 13.2597 4.729 15.9365 4.9498V21.0778C13.3389 20.8637 10.7412 20.2709 8.06445 20.0501V3.92212Z" fill="white"/>
<path opacity="0.2" d="M0.192383 5.18604C4.2923 3.14076 8.3771 3.87996 12.5106 4.51476C16.2357 5.08692 20.0025 5.58444 23.8084 3.68604V19.814C19.7085 21.8593 15.6237 21.1201 11.4901 20.4853C7.7651 19.9132 3.9983 19.4156 0.192383 21.314V5.18604ZM0.942383 5.6514V20.1594C8.29982 17.0812 15.6107 22.4644 23.0584 19.3487V4.84068C15.7009 7.91892 8.39006 2.53571 0.942383 5.6514Z" fill="#1A1A1A"/>
</svg>
